<?xml version="1.0" standalone="no"?>
<!DOCTYPE svg PUBLIC "-//W3C//DTD SVG 20010904//EN"
 "http://www.w3.org/TR/2001/REC-SVG-20010904/DTD/svg10.dtd">
<svg version="1.0" xmlns="http://www.w3.org/2000/svg"
 width="500.000000pt" height="500.000000pt" viewBox="0 0 500.000000 500.000000"
 preserveAspectRatio="xMidYMid meet">

<g transform="translate(0.000000,500.000000) scale(0.100000,-0.100000)"
fill="#000000" stroke="none">
<path d="M0 2500 l0 -2500 2500 0 2500 0 0 2500 0 2500 -2500 0 -2500 0 0
-2500z m1530 585 c15 -18 152 -901 144 -927 -6 -20 -14 -23 -127 -39 -65 -9
-91 -9 -99 -1 -6 6 -40 197 -74 424 -35 227 -65 415 -66 418 -2 3 -5 -184 -8
-415 l-5 -420 -304 -2 c-213 -2 -308 0 -318 8 -18 16 -20 928 -1 947 8 8 60
12 168 12 108 0 160 -4 168 -12 9 -9 12 -9 12 0 0 15 261 17 276 2 7 -7 40 -6
100 4 118 18 120 18 134 1z m674 -321 c9 -8 16 -22 16 -29 0 -18 -27 -45 -45
-45 -18 0 -45 27 -45 45 0 18 27 45 45 45 7 0 21 -7 29 -16z m136 -74 l0 -60
25 16 c35 23 100 21 133 -3 108 -79 61 -266 -67 -266 -22 0 -52 8 -66 17 -22
14 -25 15 -25 1 0 -11 -10 -15 -35 -15 l-35 0 0 185 0 185 35 0 35 0 0 -60z
m-350 -105 l0 -144 58 -3 c54 -3 57 -4 60 -30 l3 -28 -95 0 -96 0 0 175 0 175
35 0 35 0 0 -145z m1023 37 c21 -21 31 -42 34 -76 l6 -46 -102 0 c-91 0 -101
-2 -101 -18 0 -28 21 -42 62 -42 25 0 41 5 44 15 7 17 84 22 84 5 0 -22 -57
-71 -90 -79 -124 -27 -216 85 -166 202 18 43 44 65 92 75 54 11 102 -1 137
-36z m-803 -102 l0 -140 -35 0 -35 0 0 140 0 140 35 0 35 0 0 -140z m460 124
c0 -14 2 -14 22 0 39 27 58 21 58 -19 0 -27 -4 -35 -18 -35 -10 0 -28 -7 -40
-16 -20 -14 -22 -23 -22 -105 l0 -89 -35 0 -35 0 0 140 0 140 35 0 c25 0 35
-4 35 -16z m490 0 c0 -14 2 -14 22 0 15 10 45 16 84 16 l62 0 33 -90 c17 -49
35 -90 38 -90 4 0 19 35 34 78 37 102 38 104 79 100 l35 -3 -85 -202 -85 -203
-38 0 c-43 0 -43 -6 -1 92 l21 47 -51 123 c-56 138 -68 157 -68 110 0 -24 -4
-32 -18 -32 -10 0 -28 -7 -40 -16 -20 -14 -22 -23 -22 -105 l0 -89 -35 0 -35
0 0 140 0 140 35 0 c25 0 35 -4 35 -16z"/>
<path d="M2361 2574 c-55 -69 14 -164 89 -124 27 14 41 64 28 100 -19 55 -82
68 -117 24z"/>
<path d="M2880 2597 c-14 -7 -26 -20 -28 -30 -3 -15 5 -17 63 -17 63 0 65 1
55 20 -6 12 -22 25 -36 30 -30 12 -24 12 -54 -3z"/>
</g>
</svg>
